PathFileType	4	(X/Y/Z)	C:\Users\Graham\Documents\MATLAB\MOtoNMS_v2_2\MyData\ElaboratedData\S1\17-05-18\dynamicElaborations\rightStSt\\NE2\NE2.trc
DataRate	CameraRate	NumFrames	NumMarkers	Units	OrigDataRate	DataStartFrame
100	100	6	29	mm	100	4
Frame#	Time	V_Sacral			R_ASIS			L_ASIS			R_Knee_Lat			R_Thigh_Upper			R_Thigh_Front			R_Thigh_Rear			L_Knee_Lat			L_Thigh_Upper			L_Thigh_Front			L_Thigh_Rear			R_Ankle_Lat			R_Shank_Upper			R_Shank_Front			R_Shank_Rear			L_Ankle_Lat			L_Shank_Upper			L_Shank_Front			L_Shank_Rear			R_Heel			R_MTP1			R_MTP5			L_Heel			L_MTP1			L_MTP5			Clavicle			C7			R_Acromium			L_Acromium		
		X1	Y1	Z1	X2	Y2	Z2	X3	Y3	Z3	X4	Y4	Z4	X5	Y5	Z5	X6	Y6	Z6	X7	Y7	Z7	X8	Y8	Z8	X9	Y9	Z9	X10	Y10	Z10	X11	Y11	Z11	X12	Y12	Z12	X13	Y13	Z13	X14	Y14	Z14	X15	Y15	Z15	X16	Y16	Z16	X17	Y17	Z17	X18	Y18	Z18	X19	Y19	Z19	X20	Y20	Z20	X21	Y21	Z21	X22	Y22	Z22	X23	Y23	Z23	X24	Y24	Z24	X25	Y25	Z25	X26	Y26	Z26	X27	Y27	Z27	X28	Y28	Z28	X29	Y29	Z29	

49	0.480000	-86.661290	1062.997936	71.100338	117.248424	1028.435424	190.510440	107.427287	1043.024616	-40.970088	-5.887624	529.169438	215.117073	117.115273	866.857582	227.218558	127.345867	743.341066	190.231131	73.709112	742.323450	247.998334	187.245448	559.002612	-102.510606	167.762929	898.413165	-63.999786	209.933942	787.694266	-17.535446	197.330705	780.435651	-101.626606	-79.632105	110.064394	199.411112	14.773656	315.306090	184.280148	-33.744968	213.280806	127.085223	-33.234077	204.348718	208.107596	150.312906	116.651092	-103.020384	223.958763	346.196513	-81.593295	198.642771	230.793936	-33.198482	182.602877	233.207100	-112.575197	-158.301013	56.230519	151.775866	68.102194	59.682523	105.199752	65.414935	53.237573	182.756148	82.188493	71.605722	-47.878310	315.819618	77.592277	-41.889114	290.436120	68.877186	-128.802321	132.528377	1459.503570	90.760832	-4.558567	1570.578861	84.071063	77.057961	1485.627250	284.952216	81.226603	1496.390571	-122.010873	
50	0.490000	-87.276892	1061.964136	70.299540	116.539305	1027.379007	189.773619	106.810251	1042.047940	-41.823166	-12.863024	529.082331	214.622119	114.755960	865.509190	226.630102	123.395256	741.847931	189.477332	69.518134	741.530687	246.834166	184.610256	557.225410	-102.315917	165.794456	896.306198	-65.616574	207.576263	785.449779	-18.958274	194.157333	777.980098	-102.923609	-88.905696	110.235902	199.215960	6.593699	315.140401	184.098174	-42.361154	213.307652	126.880948	-42.064941	204.424102	207.928842	170.769115	114.074646	-105.253146	231.917257	347.149322	-82.577963	212.645885	230.289739	-34.828672	196.728842	232.307828	-114.284692	-167.752137	56.374233	151.695536	58.830688	59.456642	105.225887	56.106949	52.993323	182.718441	104.784115	65.616761	-50.473683	337.898572	82.348142	-44.201454	312.946150	73.081536	-131.267791	132.541999	1458.277546	89.851863	-4.328246	1569.633908	83.286744	77.461273	1484.667179	284.081558	80.981004	1495.303264	-122.860232	
51	0.500000	-87.796448	1060.721214	69.440795	115.907364	1026.281391	189.063377	106.355972	1040.965614	-42.672582	-19.630160	528.985567	214.109863	112.520576	864.130000	226.052125	119.562051	740.340144	188.713520	65.500414	740.740632	245.671897	181.957054	555.250637	-102.234876	163.770070	893.660662	-67.577269	205.113105	782.675488	-20.673705	190.406102	774.841028	-104.402485	-98.149854	110.437096	199.022085	-1.442258	314.960879	183.939637	-50.881934	213.342702	126.699635	-50.812202	204.521222	207.759946	190.500239	112.567880	-107.353187	239.458437	348.406302	-83.350283	225.877294	230.486627	-36.275234	210.351834	232.114978	-115.871828	-177.170788	56.542896	151.611713	49.572786	59.245505	105.262015	46.795256	52.752080	182.691370	126.539268	60.906780	-53.159492	358.681441	87.972868	-45.852963	334.446567	78.202188	-133.120635	132.584832	1456.942342	88.822621	-4.081506	1568.567347	82.341565	77.845882	1483.631114	283.067060	80.834511	1494.123886	-123.829706	
52	0.510000	-88.229935	1059.289779	68.522400	115.351783	1025.132283	188.393752	106.064566	1039.783306	-43.505353	-26.116607	528.856436	213.571963	110.415729	862.715403	225.491263	115.919760	738.828750	187.956664	61.679412	739.926249	244.540344	179.415970	553.184322	-102.293591	161.764187	890.549047	-69.807283	202.610227	779.441869	-22.625344	186.201007	771.115555	-106.006983	-107.370780	110.670815	198.836518	-9.300851	314.740303	183.792451	-59.292699	213.372637	126.541322	-59.447504	204.628404	207.599539	209.281266	112.046682	-109.306793	246.537316	349.936751	-83.954384	238.228712	231.299960	-37.550247	223.307507	232.581144	-117.331230	-186.561514	56.743879	151.527935	40.310661	59.049553	105.307184	37.464895	52.521764	182.679037	147.183699	57.415393	-55.903171	377.965123	94.223577	-46.831565	354.724667	84.011890	-134.342262	132.658247	1455.496516	87.664032	-3.819260	1567.387883	81.224001	78.214266	1482.520225	281.903841	80.790103	1492.833227	-124.930279	
53	0.520000	-88.590262	1057.704318	67.542237	114.869939	1023.922317	187.765468	105.916391	1038.501673	-44.317762	-32.246068	528.673150	213.008498	108.448606	861.263898	224.946366	112.531712	737.317934	187.224496	58.090917	739.066413	243.465314	177.107241	551.127872	-102.505286	159.861608	887.098970	-72.195283	200.154962	775.869580	-24.728636	181.742972	766.976285	-107.669861	-116.571776	110.939844	198.669736	-16.945695	314.454430	183.643019	-67.583277	213.386876	126.403944	-67.941637	204.732431	207.447775	226.889478	112.357931	-111.103113	253.105794	351.675961	-84.449763	249.608407	232.604698	-38.678335	235.426545	233.601457	-118.664096	-195.934184	56.990575	151.450708	31.030864	58.866381	105.361473	28.107917	52.304693	182.683105	166.466424	55.010795	-58.648595	395.581266	100.805677	-47.178751	373.573043	90.219682	-134.964437	132.764224	1453.947238	86.369618	-3.540497	1566.109568	79.924690	78.565942	1481.336823	280.588560	80.844957	1491.412998	-126.172999	
54	0.530000	-88.890488	1056.009487	66.500393	114.457604	1022.646159	187.164485	105.871683	1037.115602	-45.116679	-37.944292	528.417753	212.430256	106.626648	859.779500	224.407714	109.446726	735.807244	186.532266	54.777352	738.148401	242.465411	175.139887	549.165521	-102.867210	158.152611	883.486407	-74.603234	197.852220	772.125580	-26.876153	177.306068	762.662718	-109.319760	-125.750679	111.247159	198.534167	-24.340917	314.084397	183.479130	-75.746373	213.378824	126.284549	-76.267416	204.820337	207.306825	243.097728	113.285696	-112.725992	259.116444	353.522547	-84.897040	259.938633	234.239033	-39.683869	246.541061	235.015300	-119.871381	-205.298218	57.300887	151.388724	21.726860	58.691930	105.426144	18.723995	52.098240	182.703557	184.153037	53.491987	-61.307106	411.392140	107.401320	-46.989199	390.784489	96.497544	-135.066854	132.905394	1452.310610	84.936169	-3.241636	1564.750851	78.438225	78.898237	1480.086088	279.119683	80.990327	1489.850143	-127.567473	
